<?xml version="1.0" standalone="no"?><!DOCTYPE svg PUBLIC "-//W3C//DTD SVG 1.1//EN" "http://www.w3.org/Graphics/SVG/1.1/DTD/svg11.dtd"><svg t="1595747492291" class="icon" viewBox="0 0 1024 1024" version="1.1" xmlns="http://www.w3.org/2000/svg" p-id="1468" xmlns:xlink="http://www.w3.org/1999/xlink" width="200" height="200"><defs><style type="text/css"></style></defs><path d="M36.16 419.2H984.96c19.776 0 36.032-17.088 36.032-37.952a39.04 39.04 0 0 0-15.68-31.232L532.992 6.912a33.536 33.536 0 0 0-40.768 0L15.744 350.016a38.848 38.848 0 0 0-9.28 52.672c6.4 10.432 17.472 16.576 29.696 16.576z m477.888-335.104l357.696 259.2H152.896l361.152-259.2z m162.112 781.184l-0.96-359.616a36.288 36.288 0 0 0-36.288-36.16 36.096 36.096 0 0 0-36.032 36.16l0.96 359.68c0 19.904 16.256 36.096 36.288 36.096a36.096 36.096 0 0 0 36.032-36.16z m249.728 0l-0.96-359.616a36.288 36.288 0 0 0-36.288-36.16 36.096 36.096 0 0 0-36.096 36.16l1.024 359.68a36.096 36.096 0 1 0 72.32 0z m-499.456 0l-0.96-359.616a36.288 36.288 0 0 0-36.224-36.16 36.096 36.096 0 0 0-36.096 36.16l0.96 359.68c0 19.904 16.256 36.096 36.288 36.096a36.096 36.096 0 0 0 36.032-36.16z m561.408 82.752H36.224c-19.84 0-36.16 17.152-36.16 37.952 0 20.864 16.32 38.016 36.16 38.016h951.616c19.84 0 36.16-17.152 36.16-38.016 0-20.8-16.32-37.952-36.16-37.952zM176.32 865.28V505.664a36.16 36.16 0 0 0-72.384 0v359.68a36.16 36.16 0 1 0 72.32 0z" fill="#333333" p-id="1469"></path></svg>